<svg width="20" height="21" viewBox="0 0 20 21" fill="none" xmlns="http://www.w3.org/2000/svg">
<path d="M17.4983 8.83329C17.4883 7.02079 17.4083 6.03913 16.7675 5.39913C16.0358 4.66663 14.8567 4.66663 12.5 4.66663H10C7.64333 4.66663 6.46417 4.66663 5.7325 5.39913C5 6.13079 5 7.30996 5 9.66663V13.8333C5 16.19 5 17.3691 5.7325 18.1008C6.46417 18.8333 7.64333 18.8333 10 18.8333H12.5C14.8567 18.8333 16.0358 18.8333 16.7675 18.1008C17.5 17.3691 17.5 16.19 17.5 13.8333V13" stroke="white" stroke-width="1.5" stroke-linecap="round"/>
<path d="M2.5 8.83329V13.8333C2.5 14.4963 2.76339 15.1322 3.23223 15.6011C3.70107 16.0699 4.33696 16.3333 5 16.3333M15 4.66663C15 4.00358 14.7366 3.3677 14.2678 2.89886C13.7989 2.43002 13.163 2.16663 12.5 2.16663H9.16667C6.02417 2.16663 4.4525 2.16663 3.47667 3.14329C2.93167 3.68746 2.69083 4.41663 2.585 5.49996" stroke="white" stroke-width="1.5" stroke-linecap="round"/>
</svg>
