<svg width="14" height="14" viewBox="0 0 14 14" fill="none" xmlns="http://www.w3.org/2000/svg">
<g clip-path="url(#clip0_553_16)">
<path d="M7 11.375C9.41625 11.375 11.375 9.41625 11.375 7C11.375 4.58375 9.41625 2.625 7 2.625C4.58375 2.625 2.625 4.58375 2.625 7C2.625 9.41625 4.58375 11.375 7 11.375Z" fill="#F5F5FA"/>
<path d="M7 13.125C5.78859 13.125 4.60439 12.7658 3.59713 12.0928C2.58988 11.4197 1.80483 10.4631 1.34124 9.34394C0.877654 8.22474 0.756358 6.99321 0.992693 5.80507C1.22903 4.61694 1.81238 3.52557 2.66897 2.66897C3.52557 1.81237 4.61694 1.22902 5.80507 0.99269C6.99321 0.756356 8.22474 0.877651 9.34394 1.34124C10.4631 1.80482 11.4197 2.58988 12.0928 3.59713C12.7658 4.60438 13.125 5.78859 13.125 7C13.1231 8.62388 12.4772 10.1807 11.329 11.329C10.1807 12.4772 8.62389 13.1231 7 13.125ZM7 1.75C5.96165 1.75 4.94662 2.05791 4.08326 2.63478C3.2199 3.21166 2.547 4.0316 2.14964 4.99091C1.75228 5.95022 1.64831 7.00582 1.85088 8.02422C2.05345 9.04262 2.55347 9.97808 3.28769 10.7123C4.02192 11.4465 4.95738 11.9465 5.97578 12.1491C6.99418 12.3517 8.04978 12.2477 9.00909 11.8504C9.9684 11.453 10.7883 10.7801 11.3652 9.91674C11.9421 9.05339 12.25 8.03835 12.25 7C12.2484 5.60811 11.6947 4.27369 10.7105 3.28948C9.72631 2.30526 8.39189 1.75162 7 1.75Z" fill="#F5F5FA"/>
</g>
<defs>
<clipPath id="clip0_553_16">
<rect width="14" height="14" fill="white"/>
</clipPath>
</defs>
</svg>
