<svg width="30" height="30" viewBox="0 0 30 30" fill="none" xmlns="http://www.w3.org/2000/svg">
<path fill-rule="evenodd" clip-rule="evenodd" d="M8.92502 16.325C8.57389 15.9734 8.37667 15.4969 8.37667 15C8.37667 14.5031 8.57389 14.0266 8.92502 13.675L15.995 6.6025C16.3468 6.25092 16.8238 6.05347 17.3211 6.05359C17.8184 6.05371 18.2953 6.25138 18.6469 6.60312C18.9985 6.95487 19.1959 7.43187 19.1958 7.92919C19.1957 8.42651 18.998 8.90342 18.6463 9.255L12.9013 15L18.6463 20.745C18.988 21.0985 19.1772 21.572 19.1732 22.0636C19.1691 22.5553 18.9722 23.0256 18.6247 23.3734C18.2772 23.7212 17.807 23.9186 17.3154 23.9232C16.8238 23.9277 16.3501 23.7389 15.9963 23.3975L8.92377 16.3262L8.92502 16.325Z" fill="#333333"/>
</svg>
