<svg width="30" height="30" viewBox="0 0 30 30" fill="none" xmlns="http://www.w3.org/2000/svg">
<g clip-path="url(#clip0_589_7)">
<path fill-rule="evenodd" clip-rule="evenodd" d="M21.075 13.675C21.4261 14.0266 21.6233 14.5031 21.6233 15C21.6233 15.4969 21.4261 15.9734 21.075 16.325L14.005 23.3975C13.6532 23.7491 13.1762 23.9465 12.6789 23.9464C12.1816 23.9463 11.7047 23.7486 11.3531 23.3969C11.0015 23.0451 10.8041 22.5681 10.8042 22.0708C10.8043 21.5735 11.002 21.0966 11.3537 20.745L17.0987 15L11.3537 9.255C11.012 8.90153 10.8228 8.42799 10.8268 7.93637C10.8309 7.44475 11.0278 6.97438 11.3753 6.62657C11.7228 6.27877 12.193 6.08135 12.6846 6.07685C13.1762 6.07235 13.6499 6.26112 14.0037 6.6025L21.0762 13.6738L21.075 13.675Z" fill="#333333"/>
</g>
<defs>
<clipPath id="clip0_589_7">
<rect width="30" height="30" fill="white"/>
</clipPath>
</defs>
</svg>
