<svg width="20" height="20" viewBox="0 0 20 20" fill="none" xmlns="http://www.w3.org/2000/svg">
<g clip-path="url(#clip0_572_57)">
<path d="M6.64395 2.983C6.61077 2.98287 6.57789 2.98929 6.5472 3.00189C6.51651 3.0145 6.48862 3.03304 6.46511 3.05645C6.4416 3.07987 6.42295 3.10769 6.41022 3.13833C6.3975 3.16897 6.39095 3.20182 6.39095 3.235C6.39095 3.374 6.50395 3.486 6.64395 3.486H10.3569C10.4969 3.486 10.6099 3.374 10.6099 3.235C10.6099 3.20182 10.6034 3.16897 10.5907 3.13833C10.5779 3.10769 10.5593 3.07987 10.5358 3.05645C10.5123 3.03304 10.4844 3.0145 10.4537 3.00189C10.423 2.98929 10.3901 2.98287 10.3569 2.983H6.64395ZM10.3569 1.641C11.0909 1.641 11.7099 2.131 11.9009 2.801L14.0759 2.802C14.6969 2.806 15.1979 3.007 15.5079 3.44C15.7739 3.812 15.8799 4.29 15.8529 4.827L15.8499 17.84C15.8919 18.392 15.7879 18.88 15.5219 19.285C15.2099 19.758 14.7009 19.995 14.0699 20.001H3.13995C2.37995 19.971 1.81695 19.792 1.46495 19.392C1.13795 19.021 0.994948 18.512 1.00095 17.892V4.84C0.987948 4.24 1.15495 3.734 1.51895 3.36C1.89495 2.976 2.45095 2.806 3.16595 2.801H5.10095C5.29095 2.131 5.90995 1.641 6.64395 1.641H10.3569ZM10.3569 4.828H6.64395C6.09795 4.828 5.61695 4.558 5.32695 4.144H3.16995C2.78695 4.146 2.56795 4.214 2.48795 4.296C2.39695 4.389 2.34395 4.548 2.34995 4.827V17.897C2.34695 18.222 2.40195 18.419 2.47995 18.507C2.53395 18.568 2.76595 18.642 3.16495 18.658H14.0649C14.2649 18.656 14.3449 18.618 14.3909 18.549C14.4819 18.411 14.5239 18.215 14.5009 17.891L14.5019 4.795C14.5159 4.502 14.4749 4.313 14.4059 4.217C14.3799 4.182 14.2899 4.145 14.0699 4.144H11.6729C11.3829 4.558 10.9019 4.828 10.3559 4.828H10.3569ZM17.1999 0C18.1939 0 18.9999 0.801 18.9999 1.79V15.872C18.9999 16.86 18.1939 17.662 17.1999 17.662H15.2419V16.319H17.1989C17.4479 16.319 17.6489 16.119 17.6489 15.872V1.789C17.6484 1.67009 17.6007 1.55625 17.5164 1.47245C17.432 1.38865 17.3179 1.34173 17.1989 1.342H9.64295C9.39495 1.342 9.19295 1.542 9.19295 1.789V1.946H7.84295V1.789C7.84295 0.801 8.64895 0 9.64295 0H17.1999ZM8.19595 11.751C8.56895 11.751 8.87095 12.051 8.87095 12.422C8.87095 12.792 8.56895 13.093 8.19595 13.093H4.14495C4.05657 13.0934 3.96898 13.0764 3.88717 13.0429C3.80537 13.0095 3.73096 12.9602 3.66818 12.898C3.60541 12.8358 3.55551 12.7618 3.52132 12.6803C3.48714 12.5988 3.46934 12.5114 3.46895 12.423C3.46895 12.052 3.77195 11.751 4.14495 11.751H8.19595ZM12.2479 9.067C12.6199 9.067 12.9229 9.367 12.9229 9.738C12.9229 10.108 12.6199 10.409 12.2479 10.409H4.14495C4.05657 10.4094 3.96898 10.3924 3.88717 10.3589C3.80537 10.3255 3.73096 10.2762 3.66818 10.214C3.60541 10.1518 3.55551 10.0778 3.52132 9.99632C3.48714 9.91482 3.46934 9.82738 3.46895 9.739C3.46895 9.368 3.77195 9.067 4.14495 9.067H12.2479ZM12.2479 6.383C12.6199 6.383 12.9229 6.683 12.9229 7.054C12.9227 7.14238 12.905 7.22984 12.871 7.31139C12.8369 7.39295 12.7871 7.46699 12.7244 7.5293C12.6617 7.59161 12.5874 7.64096 12.5056 7.67454C12.4239 7.70812 12.3363 7.72526 12.2479 7.725H4.14495C4.05657 7.72539 3.96898 7.70838 3.88717 7.67492C3.80537 7.64146 3.73096 7.59222 3.66818 7.53001C3.60541 7.46779 3.55551 7.39382 3.52132 7.31232C3.48714 7.23082 3.46934 7.14338 3.46895 7.055C3.46895 6.684 3.77195 6.383 4.14495 6.383H12.2479Z" fill="#F5F5FA"/>
</g>
<defs>
<clipPath id="clip0_572_57">
<rect width="20" height="20" fill="white"/>
</clipPath>
</defs>
</svg>
