<svg width="14" height="15" viewBox="0 0 14 15" fill="none" xmlns="http://www.w3.org/2000/svg">
<g clip-path="url(#clip0_651_35)">
<path d="M10.7188 0.5H3.28125C1.46907 0.5 0 1.96907 0 3.78125V11.2188C0 13.0309 1.46907 14.5 3.28125 14.5H10.7188C12.5309 14.5 14 13.0309 14 11.2188V3.78125C14 1.96907 12.5309 0.5 10.7188 0.5Z" fill="url(#paint0_radial_651_35)"/>
<path d="M10.7188 0.5H3.28125C1.46907 0.5 0 1.96907 0 3.78125V11.2188C0 13.0309 1.46907 14.5 3.28125 14.5H10.7188C12.5309 14.5 14 13.0309 14 11.2188V3.78125C14 1.96907 12.5309 0.5 10.7188 0.5Z" fill="url(#paint1_radial_651_35)"/>
<path d="M7.00049 2.03125C5.51529 2.03125 5.32886 2.03776 4.74556 2.06428C4.16336 2.09097 3.76595 2.18312 3.41824 2.31836C3.05851 2.45803 2.75341 2.6449 2.44945 2.94896C2.14523 3.25297 1.95836 3.55807 1.81825 3.91764C1.68263 4.26545 1.59037 4.66303 1.56417 5.24496C1.53809 5.82831 1.53125 6.0148 1.53125 7.50006C1.53125 8.98531 1.53781 9.17114 1.56428 9.75444C1.59108 10.3366 1.68323 10.7341 1.81836 11.0818C1.95814 11.4415 2.14501 11.7466 2.44907 12.0505C2.75297 12.3548 3.05807 12.5421 3.41753 12.6817C3.76551 12.817 4.16298 12.9091 4.74507 12.9358C5.32842 12.9624 5.51469 12.9689 6.99984 12.9689C8.4852 12.9689 8.67103 12.9624 9.25433 12.9358C9.83653 12.9091 10.2344 12.817 10.5824 12.6817C10.9419 12.5421 11.2466 12.3548 11.5504 12.0505C11.8547 11.7466 12.0415 11.4415 12.1816 11.0819C12.3161 10.7341 12.4084 10.3365 12.4357 9.75455C12.4619 9.17125 12.4688 8.98531 12.4688 7.50006C12.4688 6.0148 12.4619 5.82842 12.4357 5.24507C12.4084 4.66287 12.3161 4.26551 12.1816 3.9178C12.0415 3.55807 11.8547 3.25297 11.5504 2.94896C11.2463 2.64479 10.942 2.45792 10.582 2.31841C10.2334 2.18312 9.83577 2.09091 9.25356 2.06428C8.67021 2.03776 8.48449 2.03125 6.9988 2.03125H7.00049ZM6.50989 3.01677C6.65552 3.01655 6.818 3.01677 7.00049 3.01677C8.4607 3.01677 8.63373 3.02202 9.21036 3.04822C9.74356 3.07261 10.033 3.1617 10.2257 3.23656C10.481 3.33566 10.6629 3.45416 10.8542 3.64563C11.0456 3.83703 11.1641 4.0193 11.2634 4.27453C11.3383 4.46703 11.4275 4.75644 11.4518 5.28964C11.478 5.86616 11.4837 6.0393 11.4837 7.4988C11.4837 8.9583 11.478 9.13149 11.4518 9.70795C11.4274 10.2412 11.3383 10.5306 11.2634 10.7231C11.1643 10.9783 11.0456 11.1601 10.8542 11.3514C10.6628 11.5428 10.4811 11.6612 10.2257 11.7604C10.0332 11.8356 9.74356 11.9244 9.21036 11.9488C8.63384 11.975 8.4607 11.9807 7.00049 11.9807C5.54023 11.9807 5.36714 11.975 4.79068 11.9488C4.25748 11.9242 3.96807 11.8351 3.77513 11.7603C3.51996 11.6611 3.33763 11.5427 3.14623 11.3513C2.95482 11.1599 2.83637 10.978 2.737 10.7227C2.66213 10.5301 2.57294 10.2407 2.54866 9.70752C2.52246 9.131 2.51721 8.95786 2.51721 7.49743C2.51721 6.03705 2.52246 5.86479 2.54866 5.28827C2.57305 4.75507 2.66213 4.46566 2.737 4.27289C2.83615 4.01766 2.95482 3.83539 3.14628 3.64398C3.33769 3.45258 3.51996 3.33407 3.77519 3.23476C3.96796 3.15956 4.25748 3.0707 4.79068 3.0462C5.29517 3.02339 5.49068 3.01655 6.50989 3.01541V3.01677ZM9.91971 3.9248C9.55741 3.9248 9.26346 4.21848 9.26346 4.58084C9.26346 4.94314 9.55741 5.23709 9.91971 5.23709C10.282 5.23709 10.576 4.94314 10.576 4.58084C10.576 4.21853 10.282 3.92459 9.91971 3.92459V3.9248ZM7.00049 4.69158C5.44955 4.69158 4.19207 5.94906 4.19207 7.50006C4.19207 9.05105 5.44955 10.3079 7.00049 10.3079C8.55148 10.3079 9.80853 9.05105 9.80853 7.50006C9.80853 5.94912 8.55138 4.69158 7.00038 4.69158H7.00049ZM7.00049 5.6771C8.00723 5.6771 8.82345 6.4932 8.82345 7.50006C8.82345 8.5068 8.00723 9.32301 7.00049 9.32301C5.9937 9.32301 5.17759 8.5068 5.17759 7.50006C5.17759 6.4932 5.9937 5.6771 7.00049 5.6771Z" fill="white"/>
</g>
<defs>
<radialGradient id="paint0_radial_651_35" cx="0" cy="0" r="1" gradientUnits="userSpaceOnUse" gradientTransform="translate(3.71875 15.5783) rotate(-90) scale(13.875 12.9049)">
<stop stop-color="#FFDD55"/>
<stop offset="0.1" stop-color="#FFDD55"/>
<stop offset="0.5" stop-color="#FF543E"/>
<stop offset="1" stop-color="#C837AB"/>
</radialGradient>
<radialGradient id="paint1_radial_651_35" cx="0" cy="0" r="1" gradientUnits="userSpaceOnUse" gradientTransform="translate(-2.34505 1.50849) rotate(78.681) scale(6.20222 25.5657)">
<stop stop-color="#3771C8"/>
<stop offset="0.128" stop-color="#3771C8"/>
<stop offset="1" stop-color="#6600FF" stop-opacity="0"/>
</radialGradient>
<clipPath id="clip0_651_35">
<rect width="14" height="14" fill="white" transform="translate(0 0.5)"/>
</clipPath>
</defs>
</svg>
