<svg width="14" height="15" viewBox="0 0 14 15" fill="none" xmlns="http://www.w3.org/2000/svg">
<g clip-path="url(#clip0_651_111)">
<path d="M10.7188 0.5H3.28125C1.46907 0.5 0 1.96907 0 3.78125V11.2188C0 13.0309 1.46907 14.5 3.28125 14.5H10.7188C12.5309 14.5 14 13.0309 14 11.2188V3.78125C14 1.96907 12.5309 0.5 10.7188 0.5Z" fill="white"/>
<path d="M10.7188 0.5H3.28125C1.46907 0.5 0 1.96907 0 3.78125V11.2188C0 13.0309 1.46907 14.5 3.28125 14.5H10.7188C12.5309 14.5 14 13.0309 14 11.2188V3.78125C14 1.96907 12.5309 0.5 10.7188 0.5Z" fill="#1D9BF0"/>
<path d="M10.9141 5.49904C10.9201 5.58583 10.9201 5.67261 10.9201 5.76022C10.9201 8.42881 8.88858 11.5065 5.17382 11.5065V11.5049C4.07642 11.5065 3.00174 11.1922 2.07812 10.5995C2.2377 10.6187 2.39805 10.6283 2.55883 10.6287C3.46837 10.6294 4.35175 10.3243 5.06702 9.76247C4.64559 9.7545 4.23719 9.61504 3.89891 9.36359C3.56063 9.11214 3.30939 8.76126 3.1803 8.36001C3.48287 8.41835 3.7948 8.40645 4.09205 8.32523C3.14989 8.13486 2.47204 7.30706 2.47204 6.34565V6.32006C2.75291 6.4765 3.06725 6.56319 3.3886 6.57283C2.50124 5.97974 2.2277 4.7992 2.76352 3.87619C3.27055 4.50011 3.90315 5.01041 4.62025 5.37391C5.33734 5.73742 6.12288 5.94601 6.92584 5.98614C6.84578 5.64152 6.85761 5.28192 6.96014 4.94331C7.06266 4.60469 7.25229 4.29893 7.51007 4.0566C8.32349 3.29196 9.6028 3.33117 10.3674 4.14415C10.8197 4.05486 11.2534 3.88906 11.6499 3.65388C11.4991 4.12149 11.1836 4.51842 10.7621 4.77082C11.1625 4.72365 11.5534 4.61648 11.9219 4.45292C11.6508 4.85881 11.3096 5.21303 10.9141 5.49904Z" fill="white"/>
</g>
<defs>
<clipPath id="clip0_651_111">
<rect width="14" height="14" fill="white" transform="translate(0 0.5)"/>
</clipPath>
</defs>
</svg>
