<svg width="14" height="11" viewBox="0 0 14 11" fill="none" xmlns="http://www.w3.org/2000/svg">
<g clip-path="url(#clip0_651_97)">
<path d="M13.6908 2.11348C13.6105 1.81672 13.4539 1.54617 13.2365 1.32878C13.0191 1.11139 12.7486 0.954737 12.4518 0.874422C11.3654 0.578125 6.9929 0.578125 6.9929 0.578125C6.9929 0.578125 2.6202 0.587094 1.53378 0.883391C1.23701 0.96371 0.966472 1.12037 0.749089 1.33777C0.531707 1.55517 0.375069 1.82573 0.294776 2.1225C-0.0338411 4.05286 -0.161318 6.99428 0.3038 8.84742C0.384101 9.14418 0.540742 9.41473 0.758124 9.63212C0.975506 9.84951 1.24604 10.0062 1.5428 10.0865C2.62922 10.3828 7.00182 10.3828 7.00182 10.3828C7.00182 10.3828 11.3744 10.3828 12.4607 10.0865C12.7575 10.0062 13.028 9.84952 13.2454 9.63213C13.4628 9.41474 13.6195 9.14419 13.6998 8.84742C14.0464 6.91433 14.1532 3.97471 13.6908 2.11348Z" fill="#FF0000"/>
<path d="M5.60107 7.58136L9.22839 5.48038L5.60107 3.37939V7.58136Z" fill="white"/>
</g>
<defs>
<clipPath id="clip0_651_97">
<rect width="14" height="9.84375" fill="white" transform="translate(0 0.578125)"/>
</clipPath>
</defs>
</svg>
