<svg width="14" height="15" viewBox="0 0 14 15" fill="none" xmlns="http://www.w3.org/2000/svg">
<g clip-path="url(#clip0_651_94)">
<path d="M12.6875 0.828176H1.3125C1.05441 0.825549 0.805817 0.925415 0.621271 1.10586C0.436724 1.28631 0.331298 1.53259 0.328125 1.79068V13.2116C0.331872 13.4693 0.43755 13.715 0.622034 13.895C0.806518 14.075 1.05478 14.1746 1.3125 14.1719H12.6875C12.9456 14.174 13.194 14.0738 13.3785 13.8932C13.5629 13.7127 13.6684 13.4664 13.6719 13.2083V1.78739C13.6673 1.53007 13.5613 1.28495 13.377 1.10534C13.1926 0.925721 12.9449 0.826117 12.6875 0.828176Z" fill="#0076B2"/>
<path d="M2.3035 5.83008H4.28428V12.2034H2.3035V5.83008ZM3.29443 2.6582C3.52162 2.6582 3.7437 2.72559 3.93259 2.85183C4.12147 2.97807 4.26867 3.15749 4.35556 3.36741C4.44245 3.57732 4.46513 3.80829 4.42072 4.03109C4.37632 4.2539 4.26684 4.45853 4.10611 4.6191C3.94539 4.77966 3.74066 4.88896 3.51781 4.93314C3.29496 4.97733 3.06402 4.95443 2.85419 4.86734C2.64436 4.78025 2.46507 4.63289 2.33901 4.44388C2.21295 4.25488 2.14578 4.03273 2.146 3.80555C2.14629 3.50115 2.26741 3.20932 2.48275 2.99419C2.69809 2.77905 2.99004 2.6582 3.29443 2.6582ZM5.52678 5.83008H7.42553V6.70508H7.45178C7.71647 6.20414 8.36178 5.67586 9.32537 5.67586C11.3313 5.67148 11.7032 6.99164 11.7032 8.70336V12.2034H9.7224V9.10258C9.7224 8.3643 9.70928 7.41383 8.69318 7.41383C7.67709 7.41383 7.50428 8.21883 7.50428 9.05445V12.2034H5.52678V5.83008Z" fill="white"/>
</g>
<defs>
<clipPath id="clip0_651_94">
<rect width="14" height="14" fill="white" transform="translate(0 0.5)"/>
</clipPath>
</defs>
</svg>
