<svg width="14" height="15" viewBox="0 0 14 15" fill="none" xmlns="http://www.w3.org/2000/svg">
<g clip-path="url(#clip0_651_108)">
<path d="M14 7.5C14 3.63403 10.866 0.5 7 0.5C3.13403 0.5 0 3.63398 0 7.5C0 10.9939 2.55981 13.8899 5.90625 14.415V9.52344H4.12891V7.5H5.90625V5.95781C5.90625 4.20344 6.95133 3.23437 8.55023 3.23437C9.31613 3.23437 10.1172 3.37109 10.1172 3.37109V5.09375H9.23453C8.36489 5.09375 8.09375 5.63335 8.09375 6.18695V7.5H10.0352L9.7248 9.52344H8.09375V14.415C11.4402 13.8899 14 10.9939 14 7.5Z" fill="#1877F2"/>
<path d="M9.7248 9.52344L10.0352 7.5H8.09375V6.18695C8.09375 5.6333 8.36495 5.09375 9.23453 5.09375H10.1172V3.37109C10.1172 3.37109 9.31613 3.23438 8.55023 3.23438C6.95133 3.23438 5.90625 4.20344 5.90625 5.95781V7.5H4.12891V9.52344H5.90625V14.415C6.26807 14.4717 6.63376 14.5001 7 14.5C7.36624 14.5001 7.73193 14.4717 8.09375 14.415V9.52344H9.7248Z" fill="white"/>
</g>
<defs>
<clipPath id="clip0_651_108">
<rect width="14" height="14" fill="white" transform="translate(0 0.5)"/>
</clipPath>
</defs>
</svg>
