<svg width="14" height="15" viewBox="0 0 14 15" fill="none" xmlns="http://www.w3.org/2000/svg">
<path d="M1.43148 5.13119C1.59557 4.96715 1.81809 4.875 2.05011 4.875C2.28212 4.875 2.50464 4.96715 2.66873 5.13119L6.99998 9.46244L11.3312 5.13119C11.4963 4.9718 11.7173 4.8836 11.9467 4.8856C12.1761 4.88759 12.3956 4.97961 12.5578 5.14185C12.7201 5.30408 12.8121 5.52354 12.8141 5.75296C12.8161 5.98238 12.7279 6.20341 12.5685 6.36844L7.61861 11.3183C7.45452 11.4824 7.232 11.5745 6.99998 11.5745C6.76796 11.5745 6.54544 11.4824 6.38136 11.3183L1.43148 6.36844C1.26744 6.20435 1.17529 5.98183 1.17529 5.74981C1.17529 5.51779 1.26744 5.29528 1.43148 5.13119Z" fill="#272B34"/>
</svg>
