<svg width="20" height="20" viewBox="0 0 20 20" fill="none" xmlns="http://www.w3.org/2000/svg">
<path d="M12.9166 11.6669H12.2583L12.025 11.4419C12.5458 10.8369 12.9264 10.1242 13.1396 9.3549C13.3528 8.5856 13.3934 7.77868 13.2583 6.99189C12.8666 4.67522 10.9333 2.82522 8.59998 2.54189C7.77966 2.43811 6.94647 2.52337 6.16417 2.79113C5.38186 3.0589 4.67118 3.50207 4.08651 4.08675C3.50183 4.67143 3.05865 5.38211 2.79089 6.16441C2.52312 6.94671 2.43787 7.7799 2.54165 8.60022C2.82498 10.9336 4.67498 12.8669 6.99165 13.2586C7.77844 13.3936 8.58536 13.3531 9.35466 13.1398C10.124 12.9266 10.8366 12.546 11.4416 12.0252L11.6666 12.2586V12.9169L15.2083 16.4586C15.55 16.8002 16.1083 16.8002 16.45 16.4586C16.7916 16.1169 16.7916 15.5586 16.45 15.2169L12.9166 11.6669ZM7.91665 11.6669C5.84165 11.6669 4.16665 9.99189 4.16665 7.91689C4.16665 5.84189 5.84165 4.16689 7.91665 4.16689C9.99165 4.16689 11.6666 5.84189 11.6666 7.91689C11.6666 9.99189 9.99165 11.6669 7.91665 11.6669Z" fill="#F5F5FA"/>
</svg>
