<svg width="20" height="20" viewBox="0 0 20 20" fill="none" xmlns="http://www.w3.org/2000/svg">
<path d="M17.4983 8.33341C17.4883 6.52091 17.4083 5.53925 16.7675 4.89925C16.0358 4.16675 14.8567 4.16675 12.5 4.16675H10C7.64333 4.16675 6.46417 4.16675 5.7325 4.89925C5 5.63091 5 6.81008 5 9.16675V13.3334C5 15.6901 5 16.8692 5.7325 17.6009C6.46417 18.3334 7.64333 18.3334 10 18.3334H12.5C14.8567 18.3334 16.0358 18.3334 16.7675 17.6009C17.5 16.8692 17.5 15.6901 17.5 13.3334V12.5001" stroke="#858585" stroke-width="1.5" stroke-linecap="round"/>
<path d="M2.5 8.33342V13.3334C2.5 13.9965 2.76339 14.6323 3.23223 15.1012C3.70107 15.57 4.33696 15.8334 5 15.8334M15 4.16675C15 3.50371 14.7366 2.86782 14.2678 2.39898C13.7989 1.93014 13.163 1.66675 12.5 1.66675H9.16667C6.02417 1.66675 4.4525 1.66675 3.47667 2.64341C2.93167 3.18758 2.69083 3.91675 2.585 5.00008" stroke="#858585" stroke-width="1.5" stroke-linecap="round"/>
</svg>
